# xmcd CD database file
#
# Track frame offsets:
#	150
#	34100
#	45100
#	72380
#	108710
#	132658
#	147108
#	174545
#
# Disc length: 2673 seconds
#
# Revision: 0
# Processed by: cddbd v1.5.2PL0 Copyright (c) Steve Scherf et al.
# Submitted via: CDex 1.70beta2
#
DISCID=710a6f08
DTITLE=Mull House - Funky phenomenon in my Brain
DYEAR=2001
DGENRE=Jazz
TTITLE0=Hot Brain
TTITLE1=Flowers
TTITLE2=Pink Punch
TTITLE3=Barbecue Roll]
TTITLE4=C-Zone
TTITLE5=こころざしの高いへなちょこ
TTITLE6=WalkThrough 
TTITLE7=不足している栄養素を求める感性
EXTD=YEAR: 2001
EXTT0=
EXTT1=
EXTT2=
EXTT3=
EXTT4=
EXTT5=
EXTT6=
EXTT7=
PLAYORDER=
